<?xml version="1.0" encoding="UTF-8" standalone="no"?>
<!-- Created with Inkscape (http://www.inkscape.org/) -->

<svg
   xmlns:dc="http://purl.org/dc/elements/1.1/"
   xmlns:cc="http://creativecommons.org/ns#"
   xmlns:rdf="http://www.w3.org/1999/02/22-rdf-syntax-ns#"
   xmlns:svg="http://www.w3.org/2000/svg"
   xmlns="http://www.w3.org/2000/svg"
   xmlns:sodipodi="http://sodipodi.sourceforge.net/DTD/sodipodi-0.dtd"
   xmlns:inkscape="http://www.inkscape.org/namespaces/inkscape"
   id="svg3711"
   version="1.1"
   inkscape:version="0.91 r13725"
   width="200"
   height="158.75"
   viewBox="0 0 200 158.75"
   sodipodi:docname="diet-logo.svg">
  <metadata
     id="metadata3717">
    <rdf:RDF>
      <cc:Work
         rdf:about="">
        <dc:format>image/svg+xml</dc:format>
        <dc:type
           rdf:resource="http://purl.org/dc/dcmitype/StillImage" />
        <dc:title></dc:title>
      </cc:Work>
    </rdf:RDF>
  </metadata>
  <defs
     id="defs3715" />
  <sodipodi:namedview
     pagecolor="#ffffff"
     bordercolor="#666666"
     borderopacity="1"
     objecttolerance="10"
     gridtolerance="10"
     guidetolerance="10"
     inkscape:pageopacity="0"
     inkscape:pageshadow="2"
     inkscape:window-width="1097"
     inkscape:window-height="564"
     id="namedview3713"
     showgrid="false"
     showguides="false"
     inkscape:zoom="1.0582677"
     inkscape:cx="96.007746"
     inkscape:cy="-97.570381"
     inkscape:window-x="-8"
     inkscape:window-y="-8"
     inkscape:window-maximized="1"
     inkscape:current-layer="svg3711" />
  <path
     style="opacity:0.53800001;fill:#ff0000;fill-opacity:1;fill-rule:nonzero;stroke:none;stroke-width:1;stroke-linecap:round;stroke-linejoin:miter;stroke-miterlimit:4;stroke-dasharray:none;stroke-dashoffset:0;stroke-opacity:1"
     d="m 38.582886,7.4086335 0,94.2128865 11.693359,0 0,-50.113277 10.355471,0 c 0,0 1.33645,1.33623 -0.33399,-18.708984 C 58.891536,15.924935 51.665809,10.25999 49.608277,8.0922265 L 48.621948,7.5258205 38.582886,7.4086335 Z m -32.5683587,0.333984 0,25.0566415 0,2.003906 0.199218,-0.05078 a 14.031651,12.194172 0 0 0 9.8339847,9.726562 l 0,53.234377 c 0,2.08947 1.682022,3.771477 3.771484,3.771477 l 1.433594,0 c 2.089462,0 3.771484,-1.682007 3.771484,-3.771477 l 0,-53.529299 a 14.031651,12.194172 0 0 0 8.851563,-9.43164 l 0.201172,0.05078 0,-27.0605475 -5.179688,0 -1.435547,24.2207035 -4.49414,0 0,-24.2207035 -5.845704,0 0,24.2207035 -4.49414,0 -1.435547,-24.2207035 -5.1777337,0 z m 74.6621087,0 a 15.033912,22.383823 0 0 0 -15.0332,22.3847665 15.033912,22.383823 0 0 0 9.1875,20.61914 l 0,50.874996 11.69336,0 0,-50.898433 a 15.033912,22.383823 0 0 0 9.1875,-20.595703 15.033912,22.383823 0 0 0 -15.03516,-22.3847665 z"
     id="rect3765"
     inkscape:connector-curvature="0" />
  <rect
     style="opacity:1;fill:none;fill-opacity:1;fill-rule:nonzero;stroke:none;stroke-width:1;stroke-linecap:round;stroke-linejoin:miter;stroke-miterlimit:4;stroke-dasharray:none;stroke-dashoffset:0;stroke-opacity:1"
     id="rect3813"
     width="194.65775"
     height="194.65775"
     x="-148.35565"
     y="180.48363" />
  <path
     inkscape:connector-curvature="0"
     id="path3811"
     d="m -63.307056,230.70606 0,94.21289 11.69336,0 0,-50.11327 10.355473,0 c 0,0 1.33645,1.33623 -0.33399,-18.70899 -1.40619,-16.87432 -8.631923,-22.53927 -10.689453,-24.70703 l -0.98633,-0.56641 -10.03906,-0.11719 z m -32.568362,0.33399 0,25.05664 0,2.00391 0.19922,-0.0508 a 14.031651,12.194172 0 0 0 9.83398,9.72656 l 0,53.23437 c 0,2.08947 1.68203,3.77148 3.77149,3.77148 l 1.43359,0 c 2.08946,0 3.77149,-1.68201 3.77149,-3.77148 l 0,-53.52929 a 14.031651,12.194172 0 0 0 8.851562,-9.43164 l 0.20117,0.0508 0,-27.06055 -5.179692,0 -1.43554,24.2207 -4.49414,0 0,-24.2207 -5.84571,0 0,24.2207 -4.49414,0 -1.43554,-24.2207 -5.17774,0 z m 74.662115,0 a 15.033912,22.383823 0 0 0 -15.0332,22.38477 15.033912,22.383823 0 0 0 9.1875,20.61914 l 0,50.87499 11.69336,0 0,-50.89843 a 15.033912,22.383823 0 0 0 9.1874996,-20.5957 15.033912,22.383823 0 0 0 -15.0351596,-22.38477 z"
     style="opacity:1;fill:#ffffff;fill-opacity:1;fill-rule:nonzero;stroke:none;stroke-width:1;stroke-linecap:round;stroke-linejoin:miter;stroke-miterlimit:4;stroke-dasharray:none;stroke-dashoffset:0;stroke-opacity:1"
     inkscape:export-filename="C:\Users\Laura\Desktop\CODING\brazilian-diet\img\diet-logo.png"
     inkscape:export-xdpi="299.95898"
     inkscape:export-ydpi="299.95898" />
</svg>
